<?xml version="1.0" encoding="utf-8"?>
<!-- Generator: Adobe Illustrator 25.4.1, SVG Export Plug-In . SVG Version: 6.00 Build 0)  -->
<svg version="1.1" xmlns="http://www.w3.org/2000/svg" xmlns:xlink="http://www.w3.org/1999/xlink" x="0px" y="0px"
	 viewBox="0 0 288 288" style="enable-background:new 0 0 288 288;" xml:space="preserve">
<style type="text/css">
	.st0{display:none;}
	.st1{display:inline;fill:#FFFFFF;}
	.st2{font-family:'GothamBook';}
	.st3{font-size:41.5755px;}
	.st4{display:inline;}
	.st5{fill:#FFFFFF;}
</style>
<g id="Black_Triangle">
	<polygon points="252,254 36,254 144,38 	"/>
</g>
<g id="Live_Text_-_UCF_x2F_CHDR" class="st0">
	<text transform="matrix(1 0 0 1 93.3621 234.2606)" class="st1 st2 st3">CHDR</text>
	<g class="st4">
		<path class="st5" d="M156.6,151.7c0-1.8-0.4-3.5-1.2-5.1c-1.5-3.1-6.4-5.3-11.1-7.4c-2.3-1.1-4.6-2.1-6.4-3.2
			c-8.7-5.3-11.6-11.8-12.5-16.3c-0.2-1.2-0.4-2.5-0.4-3.7c0-3.9,1.1-7.5,3.2-10.3c8.2-11,22.2-9.8,26.3-9.1c-4,0.2-14,2-18.7,11.4
			c-0.9,1.9-1.4,3.8-1.4,5.7c0,7.7,7.9,14.4,14.2,19.8c2.2,1.9,4.3,3.6,5.8,5.2c2.8,2.9,4.2,6.1,4.2,9.3c0,3.8-2,6.8-3.1,8.3
			C156.3,154.8,156.6,153.2,156.6,151.7"/>
		<path class="st5" d="M117.9,147.2c1.9,1.6,5.9,4.3,13.4,6.4c3.8,1.1,7.4,1.2,10.2,1.2c2.6,0.1,4.6,0.1,5.9,0.8
			c1,0.6,1.7,1.5,1.7,2.5l-0.1,0.6c-0.4,1.4-2.3,3-6.7,3C129.3,161.8,121.1,151.9,117.9,147.2"/>
		<path class="st5" d="M141.6,124.5c0,0,5.4-9.1,11.1-10.6c6.8-1.8,10.6,1.1,10.6,1.1l1.9-3.7l2.9,14.3c0,0,0.5,1.3-1.9,2.9
			c-2.4,1.6-2.6,1.3-2.6,1.3s-1.5-5.8-4.6-6.5c-3.1-0.7-3.1,3.4-2.9,4.7c0.2,1.3,2.8,6.6,7.2,4.4c4.8-2.4,7-5.5,7-5.5
			s0.7-1.6,1.4-1.1c0.7,0.5,3.2,3.2,3.2,3.2l-1,17c0,0,0,2.1-2.9,2.9c-2.9,0.8-2.9,0.7-2.9,0.7l1.5-5.2h1.9l-0.5-12
			c0,0-1.6,7.8-4.6,13c-3.6,6.2-9.4,11.2-9.4,11.2s3.7-4.4,3.1-9.7c-0.4-3.5-1.9-7.6-9.6-13.9C146.1,129.4,141.6,124.5,141.6,124.5"
			/>
		<path class="st5" d="M150.4,157.7c0-0.5-0.1-1-0.4-1.5c-0.9-1.6-3.2-2.5-6.9-2.7c-6.8-0.2-23.1-1.9-27.7-12.7
			c-1.5-3.5-2.2-7.3-2.2-11.2c0-4.6,1-8.3,1.6-10.3c-0.1,0.5-0.1,1.6-0.1,1.6c0,4.3,1,12.3,7.9,17.9c4.4,3.6,10.9,6.5,19.4,8.5
			c5.8,1.4,9,3.4,9.8,6.1l0.1,1.1c0,1.3-0.6,2.7-1.7,4.2C150.3,158.3,150.4,157.7,150.4,157.7"/>
		<path class="st5" d="M153.5,154.6c0-0.8-0.1-1.6-0.5-2.5c-1.2-2.9-4.7-5-10.3-6.2c-14.7-3.2-23-9.1-25.5-18
			c-0.6-2.2-0.9-4.3-0.9-6.2c0-12.2,10.7-18.7,14.4-20.6c-1.9,1.8-6.1,6.3-6.9,12c-0.1,1-0.2,2-0.2,3c0,7.2,3.7,13.6,11.4,19.4
			c2.4,1.8,5.7,3.3,8.8,4.7c4.5,2,8.8,4,10.4,6.8c0.8,1.4,1.1,2.8,1.1,4c0,2.6-1.3,4.7-2.3,5.9C153.3,156.4,153.5,155.6,153.5,154.6
			"/>
		<path class="st5" d="M153,104.6c-2.4,0-4.6-2.2-4.6-4.6c0,2.4-2.2,4.6-4.6,4.6c2.4,0,4.6,2.2,4.6,4.6
			C148.4,106.8,150.7,104.6,153,104.6"/>
		<path class="st5" d="M131.8,185.5c0,4.8-3,8.4-8.6,8.4c-5.7,0-8.7-3.6-8.7-8.4v-12.6h4.5v12.4c0,2.5,1.7,4.4,4.1,4.4
			c2.4,0,4.1-1.9,4.1-4.4v-12.4h4.5V185.5z"/>
		<path class="st5" d="M150.8,178.2c-0.9-1.1-2.2-1.7-3.9-1.7c-3.4,0-5.9,2.8-5.9,6.6s2.5,6.6,5.8,6.6c1.8,0,3.3-0.8,4.2-2.2
			l3.8,2.8c-1.7,2.4-4.6,3.6-7.4,3.6c-6.4,0-11.1-4.2-11.1-10.8s4.7-10.8,11.1-10.8c2.3,0,5.2,0.8,6.9,3L150.8,178.2z"/>
		<polygon class="st5" points="159.3,172.9 173,172.9 173,177 163.8,177 163.8,181.2 172.3,181.2 172.3,185.4 163.8,185.4 
			163.8,193.4 159.3,193.4 		"/>
	</g>
</g>
<g id="Outlines_-_UCF_x2F_CHDR">
	<g>
		<path class="st5" d="M99,234.8c-2.1,0-4-0.4-5.8-1.2c-1.8-0.8-3.3-1.8-4.6-3.2c-1.3-1.3-2.3-2.9-3.1-4.8c-0.7-1.8-1.1-3.8-1.1-5.9
			v-0.1c0-2.1,0.4-4,1.1-5.8s1.8-3.4,3.1-4.8s2.9-2.5,4.7-3.2s3.8-1.2,5.9-1.2c1.3,0,2.5,0.1,3.6,0.3c1.1,0.2,2.1,0.5,3,0.9
			c0.9,0.4,1.8,0.9,2.5,1.5c0.8,0.6,1.5,1.2,2.2,1.9l-2.2,2.4c-1.2-1.2-2.6-2.1-4-2.9c-1.4-0.7-3.1-1.1-5.1-1.1
			c-1.6,0-3.1,0.3-4.5,0.9c-1.4,0.6-2.6,1.5-3.6,2.5s-1.8,2.3-2.4,3.8c-0.6,1.5-0.9,3-0.9,4.7v0.1c0,1.7,0.3,3.3,0.9,4.7
			s1.4,2.7,2.4,3.8s2.2,1.9,3.6,2.6c1.4,0.6,2.9,0.9,4.5,0.9c2,0,3.7-0.4,5.2-1.1s2.9-1.8,4.2-3.1l2.2,2.1c-0.7,0.8-1.5,1.5-2.3,2.1
			c-0.8,0.6-1.7,1.2-2.6,1.6c-0.9,0.4-2,0.8-3,1C101.5,234.6,100.3,234.8,99,234.8z"/>
		<path class="st5" d="M116.4,205.2h3.3v12.9h16.8v-12.9h3.3v29.1h-3.3v-13.1h-16.8v13.1h-3.3V205.2z"/>
		<path class="st5" d="M148,205.2h10.1c2.3,0,4.4,0.4,6.3,1.1s3.5,1.8,4.9,3.1c1.4,1.3,2.4,2.8,3.2,4.6c0.7,1.8,1.1,3.7,1.1,5.7v0.1
			c0,2.1-0.4,4-1.1,5.7c-0.7,1.8-1.8,3.3-3.2,4.6c-1.4,1.3-3,2.3-4.9,3.1c-1.9,0.7-4,1.1-6.3,1.1H148V205.2z M158.1,231.2
			c1.8,0,3.5-0.3,5-0.9c1.5-0.6,2.8-1.4,3.8-2.4s1.8-2.2,2.4-3.6c0.6-1.4,0.9-2.9,0.9-4.5v-0.1c0-1.6-0.3-3.1-0.9-4.5
			c-0.6-1.4-1.4-2.6-2.4-3.7c-1-1-2.3-1.9-3.8-2.5c-1.5-0.6-3.2-0.9-5-0.9h-6.8v23H158.1z"/>
		<path class="st5" d="M180.5,205.2H193c1.8,0,3.4,0.3,4.8,0.8c1.4,0.5,2.6,1.2,3.5,2.1c0.7,0.7,1.3,1.6,1.7,2.5
			c0.4,1,0.6,2,0.6,3.2v0.1c0,1.2-0.2,2.3-0.6,3.3s-0.9,1.8-1.6,2.5c-0.7,0.7-1.5,1.3-2.5,1.7c-1,0.5-2,0.8-3.2,1l8.9,11.9h-4
			l-8.4-11.3H192h-8.2v11.3h-3.3V205.2z M192.7,220c1.1,0,2.1-0.1,3-0.4s1.7-0.7,2.4-1.2c0.7-0.5,1.2-1.1,1.6-1.9
			c0.4-0.7,0.6-1.6,0.6-2.5v-0.1c0-1.8-0.7-3.2-2-4.2c-1.3-1-3.1-1.5-5.5-1.5h-9V220H192.7z"/>
	</g>
	<g>
		<path class="st5" d="M156.6,151.7c0-1.8-0.4-3.5-1.2-5.1c-1.5-3.1-6.4-5.3-11.1-7.4c-2.3-1.1-4.6-2.1-6.4-3.2
			c-8.7-5.3-11.6-11.8-12.5-16.3c-0.2-1.2-0.4-2.5-0.4-3.7c0-3.9,1.1-7.5,3.2-10.3c8.2-11,22.2-9.8,26.3-9.1c-4,0.2-14,2-18.7,11.4
			c-0.9,1.9-1.4,3.8-1.4,5.7c0,7.7,7.9,14.4,14.2,19.8c2.2,1.9,4.3,3.6,5.8,5.2c2.8,2.9,4.2,6.1,4.2,9.3c0,3.8-2,6.8-3.1,8.3
			C156.3,154.8,156.6,153.2,156.6,151.7"/>
		<path class="st5" d="M117.9,147.2c1.9,1.6,5.9,4.3,13.4,6.4c3.8,1.1,7.4,1.2,10.2,1.2c2.6,0.1,4.6,0.1,5.9,0.8
			c1,0.6,1.7,1.5,1.7,2.5l-0.1,0.6c-0.4,1.4-2.3,3-6.7,3C129.3,161.8,121.1,151.9,117.9,147.2"/>
		<path class="st5" d="M141.6,124.5c0,0,5.4-9.1,11.1-10.6c6.8-1.8,10.6,1.1,10.6,1.1l1.9-3.7l2.9,14.3c0,0,0.5,1.3-1.9,2.9
			c-2.4,1.6-2.6,1.3-2.6,1.3s-1.5-5.8-4.6-6.5c-3.1-0.7-3.1,3.4-2.9,4.7c0.2,1.3,2.8,6.6,7.2,4.4c4.8-2.4,7-5.5,7-5.5
			s0.7-1.6,1.4-1.1c0.7,0.5,3.2,3.2,3.2,3.2l-1,17c0,0,0,2.1-2.9,2.9c-2.9,0.8-2.9,0.7-2.9,0.7l1.5-5.2h1.9l-0.5-12
			c0,0-1.6,7.8-4.6,13c-3.6,6.2-9.4,11.2-9.4,11.2s3.7-4.4,3.1-9.7c-0.4-3.5-1.9-7.6-9.6-13.9C146.1,129.4,141.6,124.5,141.6,124.5"
			/>
		<path class="st5" d="M150.4,157.7c0-0.5-0.1-1-0.4-1.5c-0.9-1.6-3.2-2.5-6.9-2.7c-6.8-0.2-23.1-1.9-27.7-12.7
			c-1.5-3.5-2.2-7.3-2.2-11.2c0-4.6,1-8.3,1.6-10.3c-0.1,0.5-0.1,1.6-0.1,1.6c0,4.3,1,12.3,7.9,17.9c4.4,3.6,10.9,6.5,19.4,8.5
			c5.8,1.4,9,3.4,9.8,6.1l0.1,1.1c0,1.3-0.6,2.7-1.7,4.2C150.3,158.3,150.4,157.7,150.4,157.7"/>
		<path class="st5" d="M153.5,154.6c0-0.8-0.1-1.6-0.5-2.5c-1.2-2.9-4.7-5-10.3-6.2c-14.7-3.2-23-9.1-25.5-18
			c-0.6-2.2-0.9-4.3-0.9-6.2c0-12.2,10.7-18.7,14.4-20.6c-1.9,1.8-6.1,6.3-6.9,12c-0.1,1-0.2,2-0.2,3c0,7.2,3.7,13.6,11.4,19.4
			c2.4,1.8,5.7,3.3,8.8,4.7c4.5,2,8.8,4,10.4,6.8c0.8,1.4,1.1,2.8,1.1,4c0,2.6-1.3,4.7-2.3,5.9C153.3,156.4,153.5,155.6,153.5,154.6
			"/>
		<path class="st5" d="M153,104.6c-2.4,0-4.6-2.2-4.6-4.6c0,2.4-2.2,4.6-4.6,4.6c2.4,0,4.6,2.2,4.6,4.6
			C148.4,106.8,150.7,104.6,153,104.6"/>
		<path class="st5" d="M131.8,185.5c0,4.8-3,8.4-8.6,8.4c-5.7,0-8.7-3.6-8.7-8.4v-12.6h4.5v12.4c0,2.5,1.7,4.4,4.1,4.4
			c2.4,0,4.1-1.9,4.1-4.4v-12.4h4.5V185.5z"/>
		<path class="st5" d="M150.8,178.2c-0.9-1.1-2.2-1.7-3.9-1.7c-3.4,0-5.9,2.8-5.9,6.6s2.5,6.6,5.8,6.6c1.8,0,3.3-0.8,4.2-2.2
			l3.8,2.8c-1.7,2.4-4.6,3.6-7.4,3.6c-6.4,0-11.1-4.2-11.1-10.8s4.7-10.8,11.1-10.8c2.3,0,5.2,0.8,6.9,3L150.8,178.2z"/>
		<polygon class="st5" points="159.3,172.9 173,172.9 173,177 163.8,177 163.8,181.2 172.3,181.2 172.3,185.4 163.8,185.4 
			163.8,193.4 159.3,193.4 		"/>
	</g>
</g>
</svg>
